<mxfile host="app.diagrams.net" modified="2021-05-31T09:49:40.202Z" agent="5.0 (X11; Linux x86_64) AppleWebKit/537.36 (KHTML, like Gecko) Chrome/92.0.4501.0 Safari/537.36 Edg/92.0.891.1" etag="Pu16Q-4Fj8UU56PLZXPP" version="14.7.0" type="github">
  <diagram id="wlG_OTYxwRtexbGPrc7o" name="Page-1">
    <mxGraphModel dx="3990" dy="2332" grid="1" gridSize="10" guides="1" tooltips="1" connect="1" arrows="1" fold="1" page="1" pageScale="1" pageWidth="850" pageHeight="1100" math="0" shadow="0">
      <root>
        <mxCell id="0" />
        <mxCell id="1" parent="0" />
        <mxCell id="1lm8WJyj4tGAlSs0hT6c-51" value="&lt;br&gt;&amp;nbsp; &amp;nbsp; &amp;nbsp;Factor graph(back end)" style="rounded=1;whiteSpace=wrap;html=1;fontSize=16;align=left;verticalAlign=top;dashed=1;fillColor=none;" parent="1" vertex="1">
          <mxGeometry x="200" y="750" width="570" height="660" as="geometry" />
        </mxCell>
        <mxCell id="1lm8WJyj4tGAlSs0hT6c-21" value="&lt;br&gt;&amp;nbsp; &amp;nbsp; &amp;nbsp;Lidar odometry(front end)" style="rounded=1;whiteSpace=wrap;html=1;fontSize=16;align=left;verticalAlign=top;dashed=1;fillColor=none;" parent="1" vertex="1">
          <mxGeometry x="900" y="260" width="450" height="580" as="geometry" />
        </mxCell>
        <mxCell id="1lm8WJyj4tGAlSs0hT6c-1" value="&lt;font style=&quot;font-size: 16px&quot;&gt;3D SLAM workflow&lt;/font&gt;" style="text;html=1;strokeColor=none;fillColor=none;align=center;verticalAlign=middle;whiteSpace=wrap;rounded=0;" parent="1" vertex="1">
          <mxGeometry x="20" y="50" width="180" height="20" as="geometry" />
        </mxCell>
        <mxCell id="1lm8WJyj4tGAlSs0hT6c-13" value="" style="edgeStyle=orthogonalEdgeStyle;rounded=0;orthogonalLoop=1;jettySize=auto;html=1;fontSize=16;" parent="1" source="1lm8WJyj4tGAlSs0hT6c-2" target="1lm8WJyj4tGAlSs0hT6c-12" edge="1">
          <mxGeometry relative="1" as="geometry" />
        </mxCell>
        <mxCell id="1lm8WJyj4tGAlSs0hT6c-2" value="3D point cloud" style="rounded=1;whiteSpace=wrap;html=1;fontSize=16;fillColor=#f5f5f5;strokeColor=#666666;fontColor=#333333;" parent="1" vertex="1">
          <mxGeometry x="40" y="490" width="120" height="60" as="geometry" />
        </mxCell>
        <mxCell id="1lm8WJyj4tGAlSs0hT6c-6" value="" style="edgeStyle=orthogonalEdgeStyle;rounded=0;orthogonalLoop=1;jettySize=auto;html=1;fontSize=16;" parent="1" source="1lm8WJyj4tGAlSs0hT6c-3" target="1lm8WJyj4tGAlSs0hT6c-5" edge="1">
          <mxGeometry relative="1" as="geometry" />
        </mxCell>
        <mxCell id="1lm8WJyj4tGAlSs0hT6c-16" style="edgeStyle=orthogonalEdgeStyle;rounded=0;orthogonalLoop=1;jettySize=auto;html=1;entryX=0.5;entryY=1;entryDx=0;entryDy=0;fontSize=16;exitX=1;exitY=0.5;exitDx=0;exitDy=0;" parent="1" source="1lm8WJyj4tGAlSs0hT6c-3" target="1lm8WJyj4tGAlSs0hT6c-12" edge="1">
          <mxGeometry relative="1" as="geometry">
            <Array as="points">
              <mxPoint x="190" y="258" />
              <mxPoint x="190" y="320" />
              <mxPoint x="10" y="320" />
              <mxPoint x="10" y="610" />
              <mxPoint x="320" y="610" />
            </Array>
          </mxGeometry>
        </mxCell>
        <mxCell id="1lm8WJyj4tGAlSs0hT6c-3" value="IMU data" style="rounded=1;whiteSpace=wrap;html=1;fontSize=16;fillColor=#f5f5f5;strokeColor=#666666;fontColor=#333333;" parent="1" vertex="1">
          <mxGeometry x="40" y="228" width="120" height="60" as="geometry" />
        </mxCell>
        <mxCell id="1lm8WJyj4tGAlSs0hT6c-24" value="" style="edgeStyle=orthogonalEdgeStyle;rounded=0;orthogonalLoop=1;jettySize=auto;html=1;fontSize=16;" parent="1" source="1lm8WJyj4tGAlSs0hT6c-4" target="1lm8WJyj4tGAlSs0hT6c-23" edge="1">
          <mxGeometry relative="1" as="geometry" />
        </mxCell>
        <mxCell id="1lm8WJyj4tGAlSs0hT6c-4" value="Odom data" style="rounded=1;whiteSpace=wrap;html=1;fontSize=16;fillColor=#f5f5f5;strokeColor=#666666;fontColor=#333333;" parent="1" vertex="1">
          <mxGeometry x="40" y="360" width="120" height="60" as="geometry" />
        </mxCell>
        <mxCell id="1lm8WJyj4tGAlSs0hT6c-18" style="edgeStyle=orthogonalEdgeStyle;rounded=0;orthogonalLoop=1;jettySize=auto;html=1;fontSize=16;" parent="1" source="1lm8WJyj4tGAlSs0hT6c-5" target="1lm8WJyj4tGAlSs0hT6c-7" edge="1">
          <mxGeometry relative="1" as="geometry" />
        </mxCell>
        <mxCell id="aGo5mNqXN7zDzfP3-Tz--7" value="IMU pose&lt;br&gt;in odom" style="edgeStyle=orthogonalEdgeStyle;rounded=0;orthogonalLoop=1;jettySize=auto;html=1;entryX=0.5;entryY=0;entryDx=0;entryDy=0;fontSize=16;exitX=1;exitY=0.5;exitDx=0;exitDy=0;" edge="1" parent="1" source="1lm8WJyj4tGAlSs0hT6c-5" target="1lm8WJyj4tGAlSs0hT6c-23">
          <mxGeometry x="-0.7222" relative="1" as="geometry">
            <mxPoint x="440" y="258" as="sourcePoint" />
            <Array as="points">
              <mxPoint x="530" y="258" />
              <mxPoint x="530" y="320" />
              <mxPoint x="320" y="320" />
            </Array>
            <mxPoint as="offset" />
          </mxGeometry>
        </mxCell>
        <mxCell id="1lm8WJyj4tGAlSs0hT6c-5" value="IMU preintergration" style="rounded=1;whiteSpace=wrap;html=1;fontSize=16;fillColor=#dae8fc;strokeColor=#6c8ebf;" parent="1" vertex="1">
          <mxGeometry x="240" y="218" width="160" height="80" as="geometry" />
        </mxCell>
        <mxCell id="1lm8WJyj4tGAlSs0hT6c-82" value="" style="edgeStyle=orthogonalEdgeStyle;rounded=0;orthogonalLoop=1;jettySize=auto;html=1;fontSize=16;" parent="1" source="1lm8WJyj4tGAlSs0hT6c-7" target="1lm8WJyj4tGAlSs0hT6c-81" edge="1">
          <mxGeometry relative="1" as="geometry" />
        </mxCell>
        <mxCell id="1lm8WJyj4tGAlSs0hT6c-7" value="Transform fusion" style="rounded=1;whiteSpace=wrap;html=1;fontSize=16;fillColor=#dae8fc;strokeColor=#6c8ebf;" parent="1" vertex="1">
          <mxGeometry x="580" y="218" width="160" height="80" as="geometry" />
        </mxCell>
        <mxCell id="1lm8WJyj4tGAlSs0hT6c-15" value="" style="edgeStyle=orthogonalEdgeStyle;rounded=0;orthogonalLoop=1;jettySize=auto;html=1;fontSize=16;" parent="1" source="1lm8WJyj4tGAlSs0hT6c-12" target="1lm8WJyj4tGAlSs0hT6c-14" edge="1">
          <mxGeometry relative="1" as="geometry" />
        </mxCell>
        <mxCell id="1lm8WJyj4tGAlSs0hT6c-12" value="Image projection&lt;br&gt;(deskew,projection)" style="rounded=1;whiteSpace=wrap;html=1;fontSize=16;fillColor=#dae8fc;strokeColor=#6c8ebf;" parent="1" vertex="1">
          <mxGeometry x="240" y="480" width="160" height="80" as="geometry" />
        </mxCell>
        <mxCell id="1lm8WJyj4tGAlSs0hT6c-29" value="" style="edgeStyle=orthogonalEdgeStyle;rounded=0;orthogonalLoop=1;jettySize=auto;html=1;fontSize=16;entryX=0;entryY=0.75;entryDx=0;entryDy=0;" parent="1" source="1lm8WJyj4tGAlSs0hT6c-14" target="1lm8WJyj4tGAlSs0hT6c-28" edge="1">
          <mxGeometry relative="1" as="geometry">
            <Array as="points">
              <mxPoint x="730" y="520" />
              <mxPoint x="730" y="378" />
            </Array>
          </mxGeometry>
        </mxCell>
        <mxCell id="1lm8WJyj4tGAlSs0hT6c-30" value="cloud info" style="edgeLabel;html=1;align=center;verticalAlign=middle;resizable=0;points=[];fontSize=16;labelBorderColor=none;" parent="1lm8WJyj4tGAlSs0hT6c-29" vertex="1" connectable="0">
          <mxGeometry x="-0.1176" y="-1" relative="1" as="geometry">
            <mxPoint y="46" as="offset" />
          </mxGeometry>
        </mxCell>
        <mxCell id="1lm8WJyj4tGAlSs0hT6c-14" value="Feature extraction&lt;br&gt;(surf and corner feat)" style="rounded=1;whiteSpace=wrap;html=1;fontSize=16;fillColor=#dae8fc;strokeColor=#6c8ebf;" parent="1" vertex="1">
          <mxGeometry x="480" y="480" width="160" height="80" as="geometry" />
        </mxCell>
        <mxCell id="1lm8WJyj4tGAlSs0hT6c-26" style="edgeStyle=orthogonalEdgeStyle;rounded=0;orthogonalLoop=1;jettySize=auto;html=1;fontSize=16;entryX=0;entryY=0.25;entryDx=0;entryDy=0;exitX=1;exitY=0.5;exitDx=0;exitDy=0;" parent="1" source="1lm8WJyj4tGAlSs0hT6c-23" target="1lm8WJyj4tGAlSs0hT6c-28" edge="1">
          <mxGeometry relative="1" as="geometry">
            <Array as="points">
              <mxPoint x="700" y="380" />
              <mxPoint x="700" y="348" />
            </Array>
          </mxGeometry>
        </mxCell>
        <mxCell id="1lm8WJyj4tGAlSs0hT6c-31" value="initial pose" style="edgeLabel;html=1;align=center;verticalAlign=middle;resizable=0;points=[];fontSize=16;" parent="1lm8WJyj4tGAlSs0hT6c-26" vertex="1" connectable="0">
          <mxGeometry x="-0.06" y="2" relative="1" as="geometry">
            <mxPoint x="133" y="-30" as="offset" />
          </mxGeometry>
        </mxCell>
        <mxCell id="1lm8WJyj4tGAlSs0hT6c-23" value="Pose extrapolator" style="rounded=1;whiteSpace=wrap;html=1;fontSize=16;fillColor=#dae8fc;strokeColor=#6c8ebf;" parent="1" vertex="1">
          <mxGeometry x="240" y="350" width="160" height="80" as="geometry" />
        </mxCell>
        <mxCell id="1lm8WJyj4tGAlSs0hT6c-41" value="" style="edgeStyle=orthogonalEdgeStyle;rounded=0;orthogonalLoop=1;jettySize=auto;html=1;fontSize=16;" parent="1" source="1lm8WJyj4tGAlSs0hT6c-28" target="1lm8WJyj4tGAlSs0hT6c-40" edge="1">
          <mxGeometry relative="1" as="geometry" />
        </mxCell>
        <mxCell id="1lm8WJyj4tGAlSs0hT6c-28" value="Update initial pose" style="rounded=1;whiteSpace=wrap;html=1;fontSize=16;fillColor=#dae8fc;strokeColor=#6c8ebf;" parent="1" vertex="1">
          <mxGeometry x="980" y="333" width="160" height="60" as="geometry" />
        </mxCell>
        <mxCell id="1lm8WJyj4tGAlSs0hT6c-36" value="" style="edgeStyle=orthogonalEdgeStyle;rounded=0;orthogonalLoop=1;jettySize=auto;html=1;fontSize=16;" parent="1" source="1lm8WJyj4tGAlSs0hT6c-33" target="1lm8WJyj4tGAlSs0hT6c-35" edge="1">
          <mxGeometry relative="1" as="geometry" />
        </mxCell>
        <mxCell id="1lm8WJyj4tGAlSs0hT6c-33" value="Build local map" style="rounded=1;whiteSpace=wrap;html=1;fontSize=16;fillColor=#dae8fc;strokeColor=#6c8ebf;" parent="1" vertex="1">
          <mxGeometry x="980" y="530" width="160" height="60" as="geometry" />
        </mxCell>
        <mxCell id="1lm8WJyj4tGAlSs0hT6c-38" value="" style="edgeStyle=orthogonalEdgeStyle;rounded=0;orthogonalLoop=1;jettySize=auto;html=1;fontSize=16;" parent="1" source="1lm8WJyj4tGAlSs0hT6c-35" target="1lm8WJyj4tGAlSs0hT6c-37" edge="1">
          <mxGeometry relative="1" as="geometry" />
        </mxCell>
        <mxCell id="1lm8WJyj4tGAlSs0hT6c-77" style="edgeStyle=orthogonalEdgeStyle;rounded=0;orthogonalLoop=1;jettySize=auto;html=1;fontSize=16;exitX=1;exitY=0.5;exitDx=0;exitDy=0;entryX=0.5;entryY=0;entryDx=0;entryDy=0;" parent="1" source="1lm8WJyj4tGAlSs0hT6c-35" target="1lm8WJyj4tGAlSs0hT6c-5" edge="1">
          <mxGeometry relative="1" as="geometry">
            <Array as="points">
              <mxPoint x="1430" y="660" />
              <mxPoint x="1430" y="150" />
              <mxPoint x="320" y="150" />
            </Array>
          </mxGeometry>
        </mxCell>
        <mxCell id="1lm8WJyj4tGAlSs0hT6c-80" value="lidar pose&lt;br&gt;in odom" style="edgeLabel;html=1;align=center;verticalAlign=middle;resizable=0;points=[];fontSize=16;" parent="1lm8WJyj4tGAlSs0hT6c-77" vertex="1" connectable="0">
          <mxGeometry x="0.9231" y="1" relative="1" as="geometry">
            <mxPoint y="29" as="offset" />
          </mxGeometry>
        </mxCell>
        <mxCell id="1lm8WJyj4tGAlSs0hT6c-78" style="edgeStyle=orthogonalEdgeStyle;rounded=0;orthogonalLoop=1;jettySize=auto;html=1;fontSize=16;exitX=1;exitY=0.5;exitDx=0;exitDy=0;entryX=0.524;entryY=-0.02;entryDx=0;entryDy=0;entryPerimeter=0;" parent="1" source="1lm8WJyj4tGAlSs0hT6c-35" target="1lm8WJyj4tGAlSs0hT6c-7" edge="1">
          <mxGeometry relative="1" as="geometry">
            <mxPoint x="560" y="270" as="targetPoint" />
            <Array as="points">
              <mxPoint x="1430" y="660" />
              <mxPoint x="1430" y="150" />
              <mxPoint x="664" y="150" />
            </Array>
          </mxGeometry>
        </mxCell>
        <mxCell id="1lm8WJyj4tGAlSs0hT6c-79" value="lidar pose&lt;br&gt;in map" style="edgeLabel;html=1;align=center;verticalAlign=middle;resizable=0;points=[];fontSize=16;" parent="1lm8WJyj4tGAlSs0hT6c-78" vertex="1" connectable="0">
          <mxGeometry x="0.8746" y="1" relative="1" as="geometry">
            <mxPoint x="-46" y="29" as="offset" />
          </mxGeometry>
        </mxCell>
        <mxCell id="1lm8WJyj4tGAlSs0hT6c-35" value="Scan to local map matching" style="rounded=1;whiteSpace=wrap;html=1;fontSize=16;fillColor=#dae8fc;strokeColor=#6c8ebf;" parent="1" vertex="1">
          <mxGeometry x="980" y="630" width="160" height="60" as="geometry" />
        </mxCell>
        <mxCell id="1lm8WJyj4tGAlSs0hT6c-50" value="" style="edgeStyle=orthogonalEdgeStyle;rounded=0;orthogonalLoop=1;jettySize=auto;html=1;fontSize=16;" parent="1" source="1lm8WJyj4tGAlSs0hT6c-37" target="1lm8WJyj4tGAlSs0hT6c-49" edge="1">
          <mxGeometry relative="1" as="geometry" />
        </mxCell>
        <mxCell id="1lm8WJyj4tGAlSs0hT6c-54" value="New key frame" style="edgeLabel;html=1;align=center;verticalAlign=middle;resizable=0;points=[];fontSize=16;" parent="1lm8WJyj4tGAlSs0hT6c-50" vertex="1" connectable="0">
          <mxGeometry x="0.3167" relative="1" as="geometry">
            <mxPoint as="offset" />
          </mxGeometry>
        </mxCell>
        <mxCell id="1lm8WJyj4tGAlSs0hT6c-37" value="Maybe save keyframe" style="rounded=1;whiteSpace=wrap;html=1;fontSize=16;fillColor=#dae8fc;strokeColor=#6c8ebf;" parent="1" vertex="1">
          <mxGeometry x="980" y="730" width="160" height="60" as="geometry" />
        </mxCell>
        <mxCell id="1lm8WJyj4tGAlSs0hT6c-42" value="" style="edgeStyle=orthogonalEdgeStyle;rounded=0;orthogonalLoop=1;jettySize=auto;html=1;fontSize=16;" parent="1" source="1lm8WJyj4tGAlSs0hT6c-40" target="1lm8WJyj4tGAlSs0hT6c-33" edge="1">
          <mxGeometry relative="1" as="geometry" />
        </mxCell>
        <mxCell id="1lm8WJyj4tGAlSs0hT6c-47" value="N" style="edgeLabel;html=1;align=center;verticalAlign=middle;resizable=0;points=[];fontSize=16;" parent="1lm8WJyj4tGAlSs0hT6c-42" vertex="1" connectable="0">
          <mxGeometry x="-0.2833" y="-1" relative="1" as="geometry">
            <mxPoint as="offset" />
          </mxGeometry>
        </mxCell>
        <mxCell id="1lm8WJyj4tGAlSs0hT6c-45" value="" style="edgeStyle=orthogonalEdgeStyle;rounded=0;orthogonalLoop=1;jettySize=auto;html=1;fontSize=16;" parent="1" source="1lm8WJyj4tGAlSs0hT6c-40" target="1lm8WJyj4tGAlSs0hT6c-44" edge="1">
          <mxGeometry relative="1" as="geometry" />
        </mxCell>
        <mxCell id="1lm8WJyj4tGAlSs0hT6c-46" value="Y" style="edgeLabel;html=1;align=center;verticalAlign=middle;resizable=0;points=[];fontSize=16;" parent="1lm8WJyj4tGAlSs0hT6c-45" vertex="1" connectable="0">
          <mxGeometry x="-0.2276" y="-1" relative="1" as="geometry">
            <mxPoint as="offset" />
          </mxGeometry>
        </mxCell>
        <mxCell id="1lm8WJyj4tGAlSs0hT6c-40" value="&amp;nbsp;Is static?&amp;nbsp;" style="rounded=1;whiteSpace=wrap;html=1;fontSize=16;fillColor=#dae8fc;strokeColor=#6c8ebf;" parent="1" vertex="1">
          <mxGeometry x="980" y="430" width="160" height="60" as="geometry" />
        </mxCell>
        <mxCell id="1lm8WJyj4tGAlSs0hT6c-44" value="dropped" style="rounded=1;whiteSpace=wrap;html=1;fontSize=16;fillColor=#dae8fc;strokeColor=#6c8ebf;" parent="1" vertex="1">
          <mxGeometry x="1220" y="430" width="110" height="60" as="geometry" />
        </mxCell>
        <mxCell id="1lm8WJyj4tGAlSs0hT6c-53" style="edgeStyle=orthogonalEdgeStyle;rounded=0;orthogonalLoop=1;jettySize=auto;html=1;entryX=1;entryY=0.5;entryDx=0;entryDy=0;fontSize=16;" parent="1" source="1lm8WJyj4tGAlSs0hT6c-49" target="1lm8WJyj4tGAlSs0hT6c-33" edge="1">
          <mxGeometry relative="1" as="geometry">
            <Array as="points">
              <mxPoint x="1210" y="960" />
              <mxPoint x="1210" y="560" />
            </Array>
          </mxGeometry>
        </mxCell>
        <mxCell id="aGo5mNqXN7zDzfP3-Tz--8" value="Map feature" style="edgeLabel;html=1;align=center;verticalAlign=middle;resizable=0;points=[];fontSize=16;" vertex="1" connectable="0" parent="1lm8WJyj4tGAlSs0hT6c-53">
          <mxGeometry x="-0.474" y="-2" relative="1" as="geometry">
            <mxPoint as="offset" />
          </mxGeometry>
        </mxCell>
        <mxCell id="1lm8WJyj4tGAlSs0hT6c-63" style="edgeStyle=orthogonalEdgeStyle;rounded=0;orthogonalLoop=1;jettySize=auto;html=1;fontSize=16;" parent="1" source="1lm8WJyj4tGAlSs0hT6c-49" target="1lm8WJyj4tGAlSs0hT6c-51" edge="1">
          <mxGeometry relative="1" as="geometry" />
        </mxCell>
        <mxCell id="1lm8WJyj4tGAlSs0hT6c-75" style="edgeStyle=orthogonalEdgeStyle;rounded=0;orthogonalLoop=1;jettySize=auto;html=1;entryX=1;entryY=0.5;entryDx=0;entryDy=0;fontSize=16;" parent="1" source="1lm8WJyj4tGAlSs0hT6c-49" target="1lm8WJyj4tGAlSs0hT6c-28" edge="1">
          <mxGeometry relative="1" as="geometry">
            <Array as="points">
              <mxPoint x="1380" y="980" />
              <mxPoint x="1380" y="363" />
            </Array>
          </mxGeometry>
        </mxCell>
        <mxCell id="1lm8WJyj4tGAlSs0hT6c-76" value="New pose corrected&lt;br&gt;by back end" style="edgeLabel;html=1;align=center;verticalAlign=middle;resizable=0;points=[];fontSize=16;" parent="1lm8WJyj4tGAlSs0hT6c-75" vertex="1" connectable="0">
          <mxGeometry x="-0.3601" y="-3" relative="1" as="geometry">
            <mxPoint as="offset" />
          </mxGeometry>
        </mxCell>
        <mxCell id="1lm8WJyj4tGAlSs0hT6c-49" value="Map manager" style="rounded=1;whiteSpace=wrap;html=1;fontSize=16;fillColor=#dae8fc;strokeColor=#6c8ebf;" parent="1" vertex="1">
          <mxGeometry x="980" y="930" width="160" height="100" as="geometry" />
        </mxCell>
        <mxCell id="1lm8WJyj4tGAlSs0hT6c-56" value="" style="edgeStyle=orthogonalEdgeStyle;rounded=0;orthogonalLoop=1;jettySize=auto;html=1;fontSize=16;" parent="1" source="1lm8WJyj4tGAlSs0hT6c-52" target="1lm8WJyj4tGAlSs0hT6c-55" edge="1">
          <mxGeometry relative="1" as="geometry" />
        </mxCell>
        <mxCell id="1lm8WJyj4tGAlSs0hT6c-70" value="Y" style="edgeLabel;html=1;align=center;verticalAlign=middle;resizable=0;points=[];fontSize=16;" parent="1lm8WJyj4tGAlSs0hT6c-56" vertex="1" connectable="0">
          <mxGeometry x="0.2" relative="1" as="geometry">
            <mxPoint y="-8" as="offset" />
          </mxGeometry>
        </mxCell>
        <mxCell id="1lm8WJyj4tGAlSs0hT6c-68" value="" style="edgeStyle=orthogonalEdgeStyle;rounded=0;orthogonalLoop=1;jettySize=auto;html=1;fontSize=16;" parent="1" source="1lm8WJyj4tGAlSs0hT6c-52" target="1lm8WJyj4tGAlSs0hT6c-67" edge="1">
          <mxGeometry relative="1" as="geometry" />
        </mxCell>
        <mxCell id="1lm8WJyj4tGAlSs0hT6c-69" value="N" style="edgeLabel;html=1;align=center;verticalAlign=middle;resizable=0;points=[];fontSize=16;" parent="1lm8WJyj4tGAlSs0hT6c-68" vertex="1" connectable="0">
          <mxGeometry x="-0.2879" y="-1" relative="1" as="geometry">
            <mxPoint as="offset" />
          </mxGeometry>
        </mxCell>
        <mxCell id="1lm8WJyj4tGAlSs0hT6c-52" value="New key frame added?" style="rounded=1;whiteSpace=wrap;html=1;fontSize=16;fillColor=#dae8fc;strokeColor=#6c8ebf;" parent="1" vertex="1">
          <mxGeometry x="270" y="820" width="180" height="70" as="geometry" />
        </mxCell>
        <mxCell id="1lm8WJyj4tGAlSs0hT6c-60" value="" style="edgeStyle=orthogonalEdgeStyle;rounded=0;orthogonalLoop=1;jettySize=auto;html=1;fontSize=16;" parent="1" source="1lm8WJyj4tGAlSs0hT6c-55" target="1lm8WJyj4tGAlSs0hT6c-59" edge="1">
          <mxGeometry relative="1" as="geometry" />
        </mxCell>
        <mxCell id="1lm8WJyj4tGAlSs0hT6c-55" value="Add odom factor" style="rounded=1;whiteSpace=wrap;html=1;fontSize=16;fillColor=#dae8fc;strokeColor=#6c8ebf;" parent="1" vertex="1">
          <mxGeometry x="270" y="930" width="180" height="70" as="geometry" />
        </mxCell>
        <mxCell id="1lm8WJyj4tGAlSs0hT6c-65" value="" style="edgeStyle=orthogonalEdgeStyle;rounded=0;orthogonalLoop=1;jettySize=auto;html=1;fontSize=16;" parent="1" source="1lm8WJyj4tGAlSs0hT6c-59" target="1lm8WJyj4tGAlSs0hT6c-64" edge="1">
          <mxGeometry relative="1" as="geometry" />
        </mxCell>
        <mxCell id="1lm8WJyj4tGAlSs0hT6c-59" value="Add gps factor" style="rounded=1;whiteSpace=wrap;html=1;fontSize=16;fillColor=#dae8fc;strokeColor=#6c8ebf;" parent="1" vertex="1">
          <mxGeometry x="270" y="1040" width="180" height="70" as="geometry" />
        </mxCell>
        <mxCell id="1lm8WJyj4tGAlSs0hT6c-62" style="edgeStyle=orthogonalEdgeStyle;rounded=0;orthogonalLoop=1;jettySize=auto;html=1;fontSize=16;" parent="1" target="1lm8WJyj4tGAlSs0hT6c-59" edge="1">
          <mxGeometry relative="1" as="geometry">
            <mxPoint x="70" y="1075" as="sourcePoint" />
          </mxGeometry>
        </mxCell>
        <mxCell id="1lm8WJyj4tGAlSs0hT6c-61" value="GPS data" style="rounded=1;whiteSpace=wrap;html=1;fontSize=16;fillColor=#f5f5f5;strokeColor=#666666;fontColor=#333333;" parent="1" vertex="1">
          <mxGeometry x="40" y="1045" width="120" height="60" as="geometry" />
        </mxCell>
        <mxCell id="1lm8WJyj4tGAlSs0hT6c-72" value="" style="edgeStyle=orthogonalEdgeStyle;rounded=0;orthogonalLoop=1;jettySize=auto;html=1;fontSize=16;" parent="1" source="1lm8WJyj4tGAlSs0hT6c-64" target="1lm8WJyj4tGAlSs0hT6c-71" edge="1">
          <mxGeometry relative="1" as="geometry" />
        </mxCell>
        <mxCell id="1lm8WJyj4tGAlSs0hT6c-64" value="Add loop factor" style="rounded=1;whiteSpace=wrap;html=1;fontSize=16;fillColor=#dae8fc;strokeColor=#6c8ebf;" parent="1" vertex="1">
          <mxGeometry x="270" y="1160" width="180" height="70" as="geometry" />
        </mxCell>
        <mxCell id="1lm8WJyj4tGAlSs0hT6c-67" value="dropped" style="rounded=1;whiteSpace=wrap;html=1;fontSize=16;fillColor=#dae8fc;strokeColor=#6c8ebf;" parent="1" vertex="1">
          <mxGeometry x="530" y="820" width="100" height="70" as="geometry" />
        </mxCell>
        <mxCell id="1lm8WJyj4tGAlSs0hT6c-73" style="edgeStyle=orthogonalEdgeStyle;rounded=0;orthogonalLoop=1;jettySize=auto;html=1;fontSize=16;exitX=1;exitY=0.5;exitDx=0;exitDy=0;" parent="1" source="1lm8WJyj4tGAlSs0hT6c-83" target="1lm8WJyj4tGAlSs0hT6c-49" edge="1">
          <mxGeometry relative="1" as="geometry" />
        </mxCell>
        <mxCell id="1lm8WJyj4tGAlSs0hT6c-84" value="" style="edgeStyle=orthogonalEdgeStyle;rounded=0;orthogonalLoop=1;jettySize=auto;html=1;fontSize=16;" parent="1" source="1lm8WJyj4tGAlSs0hT6c-71" target="1lm8WJyj4tGAlSs0hT6c-83" edge="1">
          <mxGeometry relative="1" as="geometry" />
        </mxCell>
        <mxCell id="1lm8WJyj4tGAlSs0hT6c-71" value="Build GTSAM graph&lt;br&gt;&amp;amp;Optimization" style="rounded=1;whiteSpace=wrap;html=1;fontSize=16;fillColor=#dae8fc;strokeColor=#6c8ebf;" parent="1" vertex="1">
          <mxGeometry x="270" y="1280" width="180" height="70" as="geometry" />
        </mxCell>
        <mxCell id="1lm8WJyj4tGAlSs0hT6c-81" value="Pose&lt;br&gt;&amp;amp; TF" style="rounded=1;whiteSpace=wrap;html=1;fontSize=16;fillColor=#e1d5e7;strokeColor=#9673a6;" parent="1" vertex="1">
          <mxGeometry x="780" y="218" width="80" height="80" as="geometry" />
        </mxCell>
        <mxCell id="1lm8WJyj4tGAlSs0hT6c-83" value="Correct poses" style="rounded=1;whiteSpace=wrap;html=1;fontSize=16;fillColor=#dae8fc;strokeColor=#6c8ebf;" parent="1" vertex="1">
          <mxGeometry x="530" y="1280" width="180" height="70" as="geometry" />
        </mxCell>
        <mxCell id="XQy-1kCUbnKiBMEeOXqX-4" value="N" style="edgeStyle=orthogonalEdgeStyle;rounded=0;orthogonalLoop=1;jettySize=auto;html=1;fontSize=16;" parent="1" target="XQy-1kCUbnKiBMEeOXqX-3" edge="1">
          <mxGeometry relative="1" as="geometry">
            <mxPoint x="2240" y="459.0588235294117" as="sourcePoint" />
            <Array as="points">
              <mxPoint x="2410" y="459" />
              <mxPoint x="2410" y="1010" />
            </Array>
          </mxGeometry>
        </mxCell>
        <mxCell id="XQy-1kCUbnKiBMEeOXqX-8" value="Y" style="edgeStyle=orthogonalEdgeStyle;rounded=0;orthogonalLoop=1;jettySize=auto;html=1;fontSize=16;" parent="1" target="XQy-1kCUbnKiBMEeOXqX-7" edge="1">
          <mxGeometry relative="1" as="geometry">
            <mxPoint x="2160" y="488.9999999999998" as="sourcePoint" />
          </mxGeometry>
        </mxCell>
        <mxCell id="XQy-1kCUbnKiBMEeOXqX-6" value="" style="edgeStyle=orthogonalEdgeStyle;rounded=0;orthogonalLoop=1;jettySize=auto;html=1;fontSize=16;" parent="1" source="XQy-1kCUbnKiBMEeOXqX-3" target="XQy-1kCUbnKiBMEeOXqX-5" edge="1">
          <mxGeometry relative="1" as="geometry" />
        </mxCell>
        <mxCell id="XQy-1kCUbnKiBMEeOXqX-3" value="saveKeyFrame()" style="whiteSpace=wrap;html=1;rounded=1;fontSize=16;" parent="1" vertex="1">
          <mxGeometry x="2080" y="980" width="160" height="60" as="geometry" />
        </mxCell>
        <mxCell id="aGo5mNqXN7zDzfP3-Tz--1" style="edgeStyle=orthogonalEdgeStyle;rounded=0;orthogonalLoop=1;jettySize=auto;html=1;" edge="1" parent="1" source="XQy-1kCUbnKiBMEeOXqX-5" target="XQy-1kCUbnKiBMEeOXqX-26">
          <mxGeometry relative="1" as="geometry" />
        </mxCell>
        <mxCell id="XQy-1kCUbnKiBMEeOXqX-5" value="resetSystemState" style="whiteSpace=wrap;html=1;rounded=1;fontSize=16;" parent="1" vertex="1">
          <mxGeometry x="2080" y="1110" width="160" height="60" as="geometry" />
        </mxCell>
        <mxCell id="XQy-1kCUbnKiBMEeOXqX-23" value="" style="edgeStyle=orthogonalEdgeStyle;rounded=0;orthogonalLoop=1;jettySize=auto;html=1;fontSize=16;" parent="1" source="XQy-1kCUbnKiBMEeOXqX-7" target="XQy-1kCUbnKiBMEeOXqX-22" edge="1">
          <mxGeometry relative="1" as="geometry" />
        </mxCell>
        <mxCell id="XQy-1kCUbnKiBMEeOXqX-7" value="extractNearby()" style="rounded=1;whiteSpace=wrap;html=1;fontSize=16;" parent="1" vertex="1">
          <mxGeometry x="2080" y="569" width="160" height="60" as="geometry" />
        </mxCell>
        <mxCell id="XQy-1kCUbnKiBMEeOXqX-20" value="" style="edgeStyle=orthogonalEdgeStyle;rounded=0;orthogonalLoop=1;jettySize=auto;html=1;fontSize=16;" parent="1" source="XQy-1kCUbnKiBMEeOXqX-9" target="XQy-1kCUbnKiBMEeOXqX-19" edge="1">
          <mxGeometry relative="1" as="geometry" />
        </mxCell>
        <mxCell id="XQy-1kCUbnKiBMEeOXqX-9" value="Get roll and pitch" style="rounded=1;whiteSpace=wrap;html=1;fontSize=16;" parent="1" vertex="1">
          <mxGeometry x="2080" y="280" width="160" height="60" as="geometry" />
        </mxCell>
        <mxCell id="XQy-1kCUbnKiBMEeOXqX-18" value="Y" style="edgeStyle=orthogonalEdgeStyle;rounded=0;orthogonalLoop=1;jettySize=auto;html=1;fontSize=16;" parent="1" target="XQy-1kCUbnKiBMEeOXqX-17" edge="1">
          <mxGeometry relative="1" as="geometry">
            <mxPoint x="2160" y="760" as="sourcePoint" />
          </mxGeometry>
        </mxCell>
        <mxCell id="XQy-1kCUbnKiBMEeOXqX-29" value="" style="edgeStyle=orthogonalEdgeStyle;rounded=0;orthogonalLoop=1;jettySize=auto;html=1;fontSize=16;" parent="1" source="XQy-1kCUbnKiBMEeOXqX-17" edge="1">
          <mxGeometry relative="1" as="geometry">
            <mxPoint x="1900" y="870" as="targetPoint" />
          </mxGeometry>
        </mxCell>
        <mxCell id="XQy-1kCUbnKiBMEeOXqX-32" value="N" style="edgeLabel;html=1;align=center;verticalAlign=middle;resizable=0;points=[];fontSize=16;" parent="XQy-1kCUbnKiBMEeOXqX-29" vertex="1" connectable="0">
          <mxGeometry x="0.2191" y="1" relative="1" as="geometry">
            <mxPoint as="offset" />
          </mxGeometry>
        </mxCell>
        <mxCell id="XQy-1kCUbnKiBMEeOXqX-30" value="Y" style="edgeStyle=orthogonalEdgeStyle;rounded=0;orthogonalLoop=1;jettySize=auto;html=1;fontSize=16;" parent="1" source="XQy-1kCUbnKiBMEeOXqX-17" target="XQy-1kCUbnKiBMEeOXqX-3" edge="1">
          <mxGeometry relative="1" as="geometry" />
        </mxCell>
        <mxCell id="XQy-1kCUbnKiBMEeOXqX-17" value="&lt;span&gt;++conveged_count &amp;gt;=3?&lt;/span&gt;" style="rhombus;whiteSpace=wrap;html=1;rounded=1;fontSize=16;" parent="1" vertex="1">
          <mxGeometry x="2060" y="830" width="200" height="80" as="geometry" />
        </mxCell>
        <mxCell id="XQy-1kCUbnKiBMEeOXqX-19" value="&lt;span&gt;set_initial_pose?&lt;/span&gt;" style="rhombus;whiteSpace=wrap;html=1;rounded=1;fontSize=16;" parent="1" vertex="1">
          <mxGeometry x="2080" y="420" width="160" height="80" as="geometry" />
        </mxCell>
        <mxCell id="XQy-1kCUbnKiBMEeOXqX-25" value="N" style="edgeStyle=orthogonalEdgeStyle;rounded=0;orthogonalLoop=1;jettySize=auto;html=1;fontSize=16;" parent="1" source="XQy-1kCUbnKiBMEeOXqX-22" target="XQy-1kCUbnKiBMEeOXqX-24" edge="1">
          <mxGeometry relative="1" as="geometry" />
        </mxCell>
        <mxCell id="XQy-1kCUbnKiBMEeOXqX-22" value="&lt;span&gt;scan2map()?&lt;/span&gt;" style="rhombus;whiteSpace=wrap;html=1;rounded=1;fontSize=16;" parent="1" vertex="1">
          <mxGeometry x="2050" y="699" width="220" height="80" as="geometry" />
        </mxCell>
        <mxCell id="XQy-1kCUbnKiBMEeOXqX-27" value="" style="edgeStyle=orthogonalEdgeStyle;rounded=0;orthogonalLoop=1;jettySize=auto;html=1;fontSize=16;" parent="1" source="XQy-1kCUbnKiBMEeOXqX-24" target="XQy-1kCUbnKiBMEeOXqX-26" edge="1">
          <mxGeometry relative="1" as="geometry">
            <Array as="points">
              <mxPoint x="1900" y="1301" />
            </Array>
          </mxGeometry>
        </mxCell>
        <mxCell id="XQy-1kCUbnKiBMEeOXqX-24" value="conveged_count=0" style="whiteSpace=wrap;html=1;rounded=1;fontSize=16;" parent="1" vertex="1">
          <mxGeometry x="1820" y="709" width="160" height="60" as="geometry" />
        </mxCell>
        <mxCell id="XQy-1kCUbnKiBMEeOXqX-26" value="return false" style="whiteSpace=wrap;html=1;rounded=1;fontSize=16;" parent="1" vertex="1">
          <mxGeometry x="2080" y="1271" width="160" height="60" as="geometry" />
        </mxCell>
        <mxCell id="aGo5mNqXN7zDzfP3-Tz--3" value="Y" style="edgeStyle=orthogonalEdgeStyle;rounded=0;orthogonalLoop=1;jettySize=auto;html=1;fontSize=16;" edge="1" parent="1" source="aGo5mNqXN7zDzfP3-Tz--2" target="XQy-1kCUbnKiBMEeOXqX-9">
          <mxGeometry relative="1" as="geometry" />
        </mxCell>
        <mxCell id="aGo5mNqXN7zDzfP3-Tz--5" value="N" style="edgeStyle=orthogonalEdgeStyle;rounded=0;orthogonalLoop=1;jettySize=auto;html=1;fontSize=16;" edge="1" parent="1" source="aGo5mNqXN7zDzfP3-Tz--2" target="aGo5mNqXN7zDzfP3-Tz--4">
          <mxGeometry relative="1" as="geometry" />
        </mxCell>
        <mxCell id="aGo5mNqXN7zDzfP3-Tz--2" value="conveged_count&amp;lt;3?" style="rhombus;whiteSpace=wrap;html=1;rounded=1;fontSize=16;" vertex="1" parent="1">
          <mxGeometry x="2050" y="120" width="220" height="80" as="geometry" />
        </mxCell>
        <mxCell id="aGo5mNqXN7zDzfP3-Tz--4" value="return true" style="whiteSpace=wrap;html=1;rounded=1;fontSize=16;" vertex="1" parent="1">
          <mxGeometry x="1840" y="130" width="120" height="60" as="geometry" />
        </mxCell>
        <mxCell id="aGo5mNqXN7zDzfP3-Tz--9" value="&lt;font style=&quot;font-size: 16px&quot;&gt;optimizeFirstPose()&lt;/font&gt;" style="text;html=1;strokeColor=none;fillColor=none;align=center;verticalAlign=middle;whiteSpace=wrap;rounded=0;" vertex="1" parent="1">
          <mxGeometry x="1730" y="50" width="180" height="20" as="geometry" />
        </mxCell>
      </root>
    </mxGraphModel>
  </diagram>
</mxfile>
